{
    "asset" : {
        "generator" : "Khronos glTF Blender I/O v1.3.48",
        "version" : "2.0"
    },
    "scene" : 0,
    "scenes" : [
        {
            "name" : "Scene",
            "nodes" : [
                0,
                1,
                2,
                3,
                4,
                5,
                6,
                7,
                8
            ]
        }
    ],
    "nodes" : [
        {
            "name" : "Light",
            "rotation" : [
                0.16907575726509094,
                0.7558803558349609,
                -0.27217137813568115,
                0.570947527885437
            ],
            "translation" : [
                4.076245307922363,
                5.903861999511719,
                -1.0054539442062378
            ]
        },
        {
            "name" : "Camera",
            "rotation" : [
                0.483536034822464,
                0.33687159419059753,
                -0.20870360732078552,
                0.7804827094078064
            ],
            "translation" : [
                7.358891487121582,
                4.958309173583984,
                6.925790786743164
            ]
        },
        {
            "mesh" : 0,
            "name" : "Part1"
        },
        {
            "mesh" : 1,
            "name" : "Cone",
            "rotation" : [
                0.15778854489326477,
                -0.006757196970283985,
                0.9874494075775146,
                0.0008849870646372437
            ],
            "scale" : [
                0.3114066421985626,
                0.5131401419639587,
                0.31145617365837097
            ],
            "translation" : [
                0.01251968927681446,
                4.964062690734863,
                -2.101494550704956
            ]
        },
        {
            "mesh" : 2,
            "name" : "Cylinder.001",
            "rotation" : [
                0.1580851972103119,
                -0.16544663906097412,
                0.6841048002243042,
                0.6925584077835083
            ],
            "scale" : [
                0.17721465229988098,
                1.1265933513641357,
                0.17743803560733795
            ],
            "translation" : [
                -5.864178657531738,
                -1.3142582178115845,
                -2.148047924041748
            ]
        },
        {
            "mesh" : 3,
            "name" : "Cylinder.002",
            "rotation" : [
                0.013124954886734486,
                -0.7028642892837524,
                0.7110401391983032,
                -0.015213865786790848
            ],
            "scale" : [
                0.17721465229988098,
                1.1265933513641357,
                0.17743803560733795
            ],
            "translation" : [
                0.027705010026693344,
                -1.4940736293792725,
                -8.361016273498535
            ]
        },
        {
            "mesh" : 4,
            "name" : "Untitled",
            "rotation" : [
                -0.3743181824684143,
                0.5999048948287964,
                -0.5999049544334412,
                -0.3743181526660919
            ],
            "scale" : [
                5.5172529220581055,
                5.5172529220581055,
                5.5172529220581055
            ],
            "translation" : [
                -0.3168390691280365,
                7.913107872009277,
                -1.8288462162017822
            ]
        },
        {
            "mesh" : 5,
            "name" : "Untitled1",
            "rotation" : [
                0.5,
                0.5,
                -0.5,
                0.4999999701976776
            ],
            "scale" : [
                6.725876808166504,
                6.725876808166504,
                6.725876808166504
            ],
            "translation" : [
                0.06259581446647644,
                -1.999254584312439,
                -12.075963973999023
            ]
        },
        {
            "mesh" : 6,
            "name" : "Untitled2",
            "rotation" : [
                0,
                0.7071068286895752,
                -0.7071068286895752,
                -1.1520232590100932e-07
            ],
            "scale" : [
                5.826563835144043,
                5.826563835144043,
                5.826563835144043
            ],
            "translation" : [
                -9.423393249511719,
                -1.6500152349472046,
                -2.20835018157959
            ]
        }
    ],
    "materials" : [
        {
            "doubleSided" : true,
            "emissiveFactor" : [
                0,
                0,
                0
            ],
            "name" : "Material.001",
            "pbrMetallicRoughness" : {
                "baseColorFactor" : [
                    0.8000000715255737,
                    0.13042119145393372,
                    0.16479894518852234,
                    1
                ],
                "metallicFactor" : 0,
                "roughnessFactor" : 0.5
            }
        },
        {
            "alphaMode" : "BLEND",
            "doubleSided" : true,
            "emissiveFactor" : [
                0,
                0,
                0
            ],
            "name" : "Untitled",
            "pbrMetallicRoughness" : {
                "baseColorTexture" : {
                    "index" : 0,
                    "texCoord" : 0
                },
                "metallicFactor" : 0,
                "roughnessFactor" : 0.5
            }
        },
        {
            "alphaMode" : "BLEND",
            "doubleSided" : true,
            "emissiveFactor" : [
                0,
                0,
                0
            ],
            "name" : "Untitled1",
            "pbrMetallicRoughness" : {
                "baseColorTexture" : {
                    "index" : 1,
                    "texCoord" : 0
                },
                "metallicFactor" : 0,
                "roughnessFactor" : 0.5
            }
        },
        {
            "alphaMode" : "BLEND",
            "doubleSided" : true,
            "emissiveFactor" : [
                0,
                0,
                0
            ],
            "name" : "Untitled2",
            "pbrMetallicRoughness" : {
                "baseColorTexture" : {
                    "index" : 2,
                    "texCoord" : 0
                },
                "metallicFactor" : 0,
                "roughnessFactor" : 0.5
            }
        }
    ],
    "meshes" : [
        {
            "name" : "Part1",
            "primitives" : [
                {
                    "attributes" : {
                        "POSITION" : 0,
                        "NORMAL" : 1
                    },
                    "indices" : 2,
                    "material" : 0
                }
            ]
        },
        {
            "name" : "Cone",
            "primitives" : [
                {
                    "attributes" : {
                        "POSITION" : 3,
                        "NORMAL" : 4,
                        "TEXCOORD_0" : 5
                    },
                    "indices" : 6
                }
            ]
        },
        {
            "name" : "Cylinder.001",
            "primitives" : [
                {
                    "attributes" : {
                        "POSITION" : 7,
                        "NORMAL" : 8,
                        "TEXCOORD_0" : 9
                    },
                    "indices" : 10
                }
            ]
        },
        {
            "name" : "Cylinder.002",
            "primitives" : [
                {
                    "attributes" : {
                        "POSITION" : 11,
                        "NORMAL" : 12,
                        "TEXCOORD_0" : 13
                    },
                    "indices" : 10
                }
            ]
        },
        {
            "name" : "Untitled",
            "primitives" : [
                {
                    "attributes" : {
                        "POSITION" : 14,
                        "NORMAL" : 15,
                        "TEXCOORD_0" : 16
                    },
                    "indices" : 17,
                    "material" : 1
                }
            ]
        },
        {
            "name" : "Untitled1",
            "primitives" : [
                {
                    "attributes" : {
                        "POSITION" : 18,
                        "NORMAL" : 19,
                        "TEXCOORD_0" : 20
                    },
                    "indices" : 17,
                    "material" : 2
                }
            ]
        },
        {
            "name" : "Untitled2",
            "primitives" : [
                {
                    "attributes" : {
                        "POSITION" : 21,
                        "NORMAL" : 22,
                        "TEXCOORD_0" : 23
                    },
                    "indices" : 17,
                    "material" : 3
                }
            ]
        }
    ],
    "textures" : [
        {
            "source" : 0
        },
        {
            "source" : 1
        },
        {
            "source" : 2
        }
    ],
    "images" : [
        {
            "bufferView" : 18,
            "mimeType" : "image/png",
            "name" : "Untitled"
        },
        {
            "bufferView" : 22,
            "mimeType" : "image/png",
            "name" : "Untitled1"
        },
        {
            "bufferView" : 26,
            "mimeType" : "image/png",
            "name" : "Untitled2"
        }
    ],
    "accessors" : [
        {
            "bufferView" : 0,
            "componentType" : 5126,
            "count" : 677,
            "max" : [
                3.5,
                3.5,
                0
            ],
            "min" : [
                -3.5,
                -3.0310888290405273,
                -5.5
            ],
            "type" : "VEC3"
        },
        {
            "bufferView" : 1,
            "componentType" : 5126,
            "count" : 677,
            "type" : "VEC3"
        },
        {
            "bufferView" : 2,
            "componentType" : 5123,
            "count" : 822,
            "type" : "SCALAR"
        },
        {
            "bufferView" : 3,
            "componentType" : 5126,
            "count" : 320,
            "max" : [
                1,
                1,
                1
            ],
            "min" : [
                -1,
                -5.278020858764648,
                -1
            ],
            "type" : "VEC3"
        },
        {
            "bufferView" : 4,
            "componentType" : 5126,
            "count" : 320,
            "type" : "VEC3"
        },
        {
            "bufferView" : 5,
            "componentType" : 5126,
            "count" : 320,
            "type" : "VEC2"
        },
        {
            "bufferView" : 6,
            "componentType" : 5123,
            "count" : 558,
            "type" : "SCALAR"
        },
        {
            "bufferView" : 7,
            "componentType" : 5126,
            "count" : 320,
            "max" : [
                1.7569502592086792,
                1,
                1.7475532293319702
            ],
            "min" : [
                -1.7474101781845093,
                -1.919301986694336,
                -1.7565479278564453
            ],
            "type" : "VEC3"
        },
        {
            "bufferView" : 8,
            "componentType" : 5126,
            "count" : 320,
            "type" : "VEC3"
        },
        {
            "bufferView" : 9,
            "componentType" : 5126,
            "count" : 320,
            "type" : "VEC2"
        },
        {
            "bufferView" : 10,
            "componentType" : 5123,
            "count" : 558,
            "type" : "SCALAR"
        },
        {
            "bufferView" : 11,
            "componentType" : 5126,
            "count" : 320,
            "max" : [
                1.7569502592086792,
                1,
                1.7475532293319702
            ],
            "min" : [
                -1.7474101781845093,
                -1.919301986694336,
                -1.7565479278564453
            ],
            "type" : "VEC3"
        },
        {
            "bufferView" : 12,
            "componentType" : 5126,
            "count" : 320,
            "type" : "VEC3"
        },
        {
            "bufferView" : 13,
            "componentType" : 5126,
            "count" : 320,
            "type" : "VEC2"
        },
        {
            "bufferView" : 14,
            "componentType" : 5126,
            "count" : 4,
            "max" : [
                0.75,
                0,
                0.5
            ],
            "min" : [
                -0.75,
                0,
                -0.5
            ],
            "type" : "VEC3"
        },
        {
            "bufferView" : 15,
            "componentType" : 5126,
            "count" : 4,
            "type" : "VEC3"
        },
        {
            "bufferView" : 16,
            "componentType" : 5126,
            "count" : 4,
            "type" : "VEC2"
        },
        {
            "bufferView" : 17,
            "componentType" : 5123,
            "count" : 6,
            "type" : "SCALAR"
        },
        {
            "bufferView" : 19,
            "componentType" : 5126,
            "count" : 4,
            "max" : [
                0.75,
                0,
                0.5
            ],
            "min" : [
                -0.75,
                0,
                -0.5
            ],
            "type" : "VEC3"
        },
        {
            "bufferView" : 20,
            "componentType" : 5126,
            "count" : 4,
            "type" : "VEC3"
        },
        {
            "bufferView" : 21,
            "componentType" : 5126,
            "count" : 4,
            "type" : "VEC2"
        },
        {
            "bufferView" : 23,
            "componentType" : 5126,
            "count" : 4,
            "max" : [
                0.75,
                0,
                0.5
            ],
            "min" : [
                -0.75,
                0,
                -0.5
            ],
            "type" : "VEC3"
        },
        {
            "bufferView" : 24,
            "componentType" : 5126,
            "count" : 4,
            "type" : "VEC3"
        },
        {
            "bufferView" : 25,
            "componentType" : 5126,
            "count" : 4,
            "type" : "VEC2"
        }
    ],
    "bufferViews" : [
        {
            "buffer" : 0,
            "byteLength" : 8124,
            "byteOffset" : 0
        },
        {
            "buffer" : 0,
            "byteLength" : 8124,
            "byteOffset" : 8124
        },
        {
            "buffer" : 0,
            "byteLength" : 1644,
            "byteOffset" : 16248
        },
        {
            "buffer" : 0,
            "byteLength" : 3840,
            "byteOffset" : 17892
        },
        {
            "buffer" : 0,
            "byteLength" : 3840,
            "byteOffset" : 21732
        },
        {
            "buffer" : 0,
            "byteLength" : 2560,
            "byteOffset" : 25572
        },
        {
            "buffer" : 0,
            "byteLength" : 1116,
            "byteOffset" : 28132
        },
        {
            "buffer" : 0,
            "byteLength" : 3840,
            "byteOffset" : 29248
        },
        {
            "buffer" : 0,
            "byteLength" : 3840,
            "byteOffset" : 33088
        },
        {
            "buffer" : 0,
            "byteLength" : 2560,
            "byteOffset" : 36928
        },
        {
            "buffer" : 0,
            "byteLength" : 1116,
            "byteOffset" : 39488
        },
        {
            "buffer" : 0,
            "byteLength" : 3840,
            "byteOffset" : 40604
        },
        {
            "buffer" : 0,
            "byteLength" : 3840,
            "byteOffset" : 44444
        },
        {
            "buffer" : 0,
            "byteLength" : 2560,
            "byteOffset" : 48284
        },
        {
            "buffer" : 0,
            "byteLength" : 48,
            "byteOffset" : 50844
        },
        {
            "buffer" : 0,
            "byteLength" : 48,
            "byteOffset" : 50892
        },
        {
            "buffer" : 0,
            "byteLength" : 32,
            "byteOffset" : 50940
        },
        {
            "buffer" : 0,
            "byteLength" : 12,
            "byteOffset" : 50972
        },
        {
            "buffer" : 0,
            "byteLength" : 4107,
            "byteOffset" : 50984
        },
        {
            "buffer" : 0,
            "byteLength" : 48,
            "byteOffset" : 55092
        },
        {
            "buffer" : 0,
            "byteLength" : 48,
            "byteOffset" : 55140
        },
        {
            "buffer" : 0,
            "byteLength" : 32,
            "byteOffset" : 55188
        },
        {
            "buffer" : 0,
            "byteLength" : 2734,
            "byteOffset" : 55220
        },
        {
            "buffer" : 0,
            "byteLength" : 48,
            "byteOffset" : 57956
        },
        {
            "buffer" : 0,
            "byteLength" : 48,
            "byteOffset" : 58004
        },
        {
            "buffer" : 0,
            "byteLength" : 32,
            "byteOffset" : 58052
        },
        {
            "buffer" : 0,
            "byteLength" : 2537,
            "byteOffset" : 58084
        }
    ],
    "buffers" : [
        {
            "byteLength" : 60624,
            "uri" : "data:application/octet-stream;base64,"
        }
    ]
}
