{
    "asset" : {
        "generator" : "Khronos glTF Blender I/O v1.3.48",
        "version" : "2.0"
    },
    "scene" : 0,
    "scenes" : [
        {
            "name" : "Scene",
            "nodes" : [
                0,
                1,
                2,
                3,
                4,
                5,
                6,
                7,
                8
            ]
        }
    ],
    "nodes" : [
        {
            "name" : "Light",
            "rotation" : [
                0.16907575726509094,
                0.7558803558349609,
                -0.27217137813568115,
                0.570947527885437
            ],
            "translation" : [
                4.076245307922363,
                5.903861999511719,
                -1.0054539442062378
            ]
        },
        {
            "name" : "Camera",
            "rotation" : [
                0.483536034822464,
                0.33687159419059753,
                -0.20870360732078552,
                0.7804827094078064
            ],
            "translation" : [
                7.358891487121582,
                4.958309173583984,
                6.925790786743164
            ]
        },
        {
            "mesh" : 0,
            "name" : "Part1"
        },
        {
            "mesh" : 1,
            "name" : "Cone",
            "rotation" : [
                0.15778854489326477,
                -0.006757196970283985,
                0.9874494075775146,
                0.0008849870646372437
            ],
            "scale" : [
                0.3114066421985626,
                0.5131401419639587,
                0.31145617365837097
            ],
            "translation" : [
                0.01251968927681446,
                4.964062690734863,
                -2.101494550704956
            ]
        },
        {
            "mesh" : 2,
            "name" : "Cylinder.001",
            "rotation" : [
                0.1580851972103119,
                -0.16544663906097412,
                0.6841048002243042,
                0.6925584077835083
            ],
            "scale" : [
                0.17721465229988098,
                1.1265933513641357,
                0.17743803560733795
            ],
            "translation" : [
                -5.864178657531738,
                -1.3142582178115845,
                -2.148047924041748
            ]
        },
        {
            "mesh" : 3,
            "name" : "Cylinder.002",
            "rotation" : [
                0.013124954886734486,
                -0.7028642892837524,
                0.7110401391983032,
                -0.015213865786790848
            ],
            "scale" : [
                0.17721465229988098,
                1.1265933513641357,
                0.17743803560733795
            ],
            "translation" : [
                0.027705010026693344,
                -1.4940736293792725,
                -8.361016273498535
            ]
        },
        {
            "mesh" : 4,
            "name" : "Untitled",
            "rotation" : [
                -0.38630419969558716,
                0.5922576785087585,
                -0.5922576785087585,
                -0.38630419969558716
            ],
            "scale" : [
                12.503973007202148,
                12.503973007202148,
                12.503973007202148
            ],
            "translation" : [
                0.0057180821895599365,
                7.9842047691345215,
                -0.8312209248542786
            ]
        },
        {
            "mesh" : 5,
            "name" : "Untitled1",
            "rotation" : [
                0.3573712408542633,
                0.6101522445678711,
                -0.6101523041725159,
                0.3573712408542633
            ],
            "scale" : [
                12.836540222167969,
                12.836540222167969,
                12.836540222167969
            ],
            "translation" : [
                -1.437948226928711,
                -2.9409666061401367,
                -13.628135681152344
            ]
        },
        {
            "mesh" : 6,
            "name" : "Untitled2",
            "rotation" : [
                0.6951236724853516,
                0.1296268105506897,
                0.1296268105506897,
                -0.6951236724853516
            ],
            "scale" : [
                -10.734353065490723,
                -10.734353065490723,
                -10.734353065490723
            ],
            "translation" : [
                -11.13818359375,
                -2.451669692993164,
                -3.147331476211548
            ]
        }
    ],
    "materials" : [
        {
            "doubleSided" : true,
            "emissiveFactor" : [
                0,
                0,
                0
            ],
            "name" : "Material.001",
            "pbrMetallicRoughness" : {
                "baseColorFactor" : [
                    0.8000000715255737,
                    0.13042119145393372,
                    0.16479894518852234,
                    1
                ],
                "metallicFactor" : 0,
                "roughnessFactor" : 0.5
            }
        },
        {
            "doubleSided" : true,
            "emissiveFactor" : [
                0,
                0,
                0
            ],
            "name" : "Material.003",
            "pbrMetallicRoughness" : {
                "baseColorFactor" : [
                    0.8000000715255737,
                    0.08860581368207932,
                    0,
                    1
                ],
                "metallicFactor" : 0,
                "roughnessFactor" : 0.5
            }
        },
        {
            "doubleSided" : true,
            "emissiveFactor" : [
                0,
                0,
                0
            ],
            "name" : "Material.002",
            "pbrMetallicRoughness" : {
                "baseColorFactor" : [
                    0.8000000715255737,
                    0.09481065720319748,
                    0.004661036189645529,
                    1
                ],
                "metallicFactor" : 0,
                "roughnessFactor" : 0.5
            }
        },
        {
            "doubleSided" : true,
            "emissiveFactor" : [
                0,
                0,
                0
            ],
            "name" : "Material.004",
            "pbrMetallicRoughness" : {
                "baseColorFactor" : [
                    0.8000000715255737,
                    0.07463011145591736,
                    0,
                    1
                ],
                "metallicFactor" : 0,
                "roughnessFactor" : 0.5
            }
        },
        {
            "alphaMode" : "BLEND",
            "doubleSided" : true,
            "emissiveFactor" : [
                0,
                0,
                0
            ],
            "name" : "Untitled",
            "pbrMetallicRoughness" : {
                "baseColorTexture" : {
                    "index" : 0,
                    "texCoord" : 0
                },
                "metallicFactor" : 0,
                "roughnessFactor" : 0.5
            }
        },
        {
            "alphaMode" : "BLEND",
            "doubleSided" : true,
            "emissiveFactor" : [
                0,
                0,
                0
            ],
            "name" : "Untitled1",
            "pbrMetallicRoughness" : {
                "baseColorTexture" : {
                    "index" : 1,
                    "texCoord" : 0
                },
                "metallicFactor" : 0,
                "roughnessFactor" : 0.5
            }
        },
        {
            "alphaMode" : "BLEND",
            "doubleSided" : true,
            "emissiveFactor" : [
                0,
                0,
                0
            ],
            "name" : "Untitled2",
            "pbrMetallicRoughness" : {
                "baseColorTexture" : {
                    "index" : 2,
                    "texCoord" : 0
                },
                "metallicFactor" : 0,
                "roughnessFactor" : 0.5
            }
        }
    ],
    "meshes" : [
        {
            "name" : "Part1",
            "primitives" : [
                {
                    "attributes" : {
                        "POSITION" : 0,
                        "NORMAL" : 1
                    },
                    "indices" : 2,
                    "material" : 0
                }
            ]
        },
        {
            "name" : "Cone",
            "primitives" : [
                {
                    "attributes" : {
                        "POSITION" : 3,
                        "NORMAL" : 4,
                        "TEXCOORD_0" : 5
                    },
                    "indices" : 6,
                    "material" : 1
                }
            ]
        },
        {
            "name" : "Cylinder.001",
            "primitives" : [
                {
                    "attributes" : {
                        "POSITION" : 7,
                        "NORMAL" : 8,
                        "TEXCOORD_0" : 9
                    },
                    "indices" : 10,
                    "material" : 2
                }
            ]
        },
        {
            "name" : "Cylinder.002",
            "primitives" : [
                {
                    "attributes" : {
                        "POSITION" : 11,
                        "NORMAL" : 12,
                        "TEXCOORD_0" : 13
                    },
                    "indices" : 14,
                    "material" : 3
                }
            ]
        },
        {
            "name" : "Untitled.002",
            "primitives" : [
                {
                    "attributes" : {
                        "POSITION" : 15,
                        "NORMAL" : 16,
                        "TEXCOORD_0" : 17
                    },
                    "indices" : 18,
                    "material" : 4
                }
            ]
        },
        {
            "name" : "Untitled1.001",
            "primitives" : [
                {
                    "attributes" : {
                        "POSITION" : 19,
                        "NORMAL" : 20,
                        "TEXCOORD_0" : 21
                    },
                    "indices" : 18,
                    "material" : 5
                }
            ]
        },
        {
            "name" : "Untitled2.001",
            "primitives" : [
                {
                    "attributes" : {
                        "POSITION" : 22,
                        "NORMAL" : 23,
                        "TEXCOORD_0" : 24
                    },
                    "indices" : 18,
                    "material" : 6
                }
            ]
        }
    ],
    "textures" : [
        {
            "source" : 0
        },
        {
            "source" : 1
        },
        {
            "source" : 2
        }
    ],
    "images" : [
        {
            "bufferView" : 19,
            "mimeType" : "image/png",
            "name" : "Untitled"
        },
        {
            "bufferView" : 23,
            "mimeType" : "image/png",
            "name" : "Untitled1"
        },
        {
            "bufferView" : 27,
            "mimeType" : "image/png",
            "name" : "Untitled2"
        }
    ],
    "accessors" : [
        {
            "bufferView" : 0,
            "componentType" : 5126,
            "count" : 294,
            "max" : [
                3.5,
                3.5,
                0
            ],
            "min" : [
                -3.5,
                -3.0310888290405273,
                -5.5
            ],
            "type" : "VEC3"
        },
        {
            "bufferView" : 1,
            "componentType" : 5126,
            "count" : 294,
            "type" : "VEC3"
        },
        {
            "bufferView" : 2,
            "componentType" : 5123,
            "count" : 822,
            "type" : "SCALAR"
        },
        {
            "bufferView" : 3,
            "componentType" : 5126,
            "count" : 195,
            "max" : [
                1,
                1,
                1
            ],
            "min" : [
                -1,
                -5.278020858764648,
                -1
            ],
            "type" : "VEC3"
        },
        {
            "bufferView" : 4,
            "componentType" : 5126,
            "count" : 195,
            "type" : "VEC3"
        },
        {
            "bufferView" : 5,
            "componentType" : 5126,
            "count" : 195,
            "type" : "VEC2"
        },
        {
            "bufferView" : 6,
            "componentType" : 5123,
            "count" : 558,
            "type" : "SCALAR"
        },
        {
            "bufferView" : 7,
            "componentType" : 5126,
            "count" : 320,
            "max" : [
                1.7569502592086792,
                1,
                1.7475532293319702
            ],
            "min" : [
                -1.7474101781845093,
                -1.919301986694336,
                -1.7565479278564453
            ],
            "type" : "VEC3"
        },
        {
            "bufferView" : 8,
            "componentType" : 5126,
            "count" : 320,
            "type" : "VEC3"
        },
        {
            "bufferView" : 9,
            "componentType" : 5126,
            "count" : 320,
            "type" : "VEC2"
        },
        {
            "bufferView" : 10,
            "componentType" : 5123,
            "count" : 558,
            "type" : "SCALAR"
        },
        {
            "bufferView" : 11,
            "componentType" : 5126,
            "count" : 195,
            "max" : [
                1.7569502592086792,
                1,
                1.7475532293319702
            ],
            "min" : [
                -1.7474101781845093,
                -1.919301986694336,
                -1.7565479278564453
            ],
            "type" : "VEC3"
        },
        {
            "bufferView" : 12,
            "componentType" : 5126,
            "count" : 195,
            "type" : "VEC3"
        },
        {
            "bufferView" : 13,
            "componentType" : 5126,
            "count" : 195,
            "type" : "VEC2"
        },
        {
            "bufferView" : 14,
            "componentType" : 5123,
            "count" : 558,
            "type" : "SCALAR"
        },
        {
            "bufferView" : 15,
            "componentType" : 5126,
            "count" : 4,
            "max" : [
                0.75,
                0,
                0.5
            ],
            "min" : [
                -0.75,
                0,
                -0.5
            ],
            "type" : "VEC3"
        },
        {
            "bufferView" : 16,
            "componentType" : 5126,
            "count" : 4,
            "type" : "VEC3"
        },
        {
            "bufferView" : 17,
            "componentType" : 5126,
            "count" : 4,
            "type" : "VEC2"
        },
        {
            "bufferView" : 18,
            "componentType" : 5123,
            "count" : 6,
            "type" : "SCALAR"
        },
        {
            "bufferView" : 20,
            "componentType" : 5126,
            "count" : 4,
            "max" : [
                0.75,
                0,
                0.5
            ],
            "min" : [
                -0.75,
                0,
                -0.5
            ],
            "type" : "VEC3"
        },
        {
            "bufferView" : 21,
            "componentType" : 5126,
            "count" : 4,
            "type" : "VEC3"
        },
        {
            "bufferView" : 22,
            "componentType" : 5126,
            "count" : 4,
            "type" : "VEC2"
        },
        {
            "bufferView" : 24,
            "componentType" : 5126,
            "count" : 4,
            "max" : [
                0.75,
                0,
                0.5
            ],
            "min" : [
                -0.75,
                0,
                -0.5
            ],
            "type" : "VEC3"
        },
        {
            "bufferView" : 25,
            "componentType" : 5126,
            "count" : 4,
            "type" : "VEC3"
        },
        {
            "bufferView" : 26,
            "componentType" : 5126,
            "count" : 4,
            "type" : "VEC2"
        }
    ],
    "bufferViews" : [
        {
            "buffer" : 0,
            "byteLength" : 3528,
            "byteOffset" : 0
        },
        {
            "buffer" : 0,
            "byteLength" : 3528,
            "byteOffset" : 3528
        },
        {
            "buffer" : 0,
            "byteLength" : 1644,
            "byteOffset" : 7056
        },
        {
            "buffer" : 0,
            "byteLength" : 2340,
            "byteOffset" : 8700
        },
        {
            "buffer" : 0,
            "byteLength" : 2340,
            "byteOffset" : 11040
        },
        {
            "buffer" : 0,
            "byteLength" : 1560,
            "byteOffset" : 13380
        },
        {
            "buffer" : 0,
            "byteLength" : 1116,
            "byteOffset" : 14940
        },
        {
            "buffer" : 0,
            "byteLength" : 3840,
            "byteOffset" : 16056
        },
        {
            "buffer" : 0,
            "byteLength" : 3840,
            "byteOffset" : 19896
        },
        {
            "buffer" : 0,
            "byteLength" : 2560,
            "byteOffset" : 23736
        },
        {
            "buffer" : 0,
            "byteLength" : 1116,
            "byteOffset" : 26296
        },
        {
            "buffer" : 0,
            "byteLength" : 2340,
            "byteOffset" : 27412
        },
        {
            "buffer" : 0,
            "byteLength" : 2340,
            "byteOffset" : 29752
        },
        {
            "buffer" : 0,
            "byteLength" : 1560,
            "byteOffset" : 32092
        },
        {
            "buffer" : 0,
            "byteLength" : 1116,
            "byteOffset" : 33652
        },
        {
            "buffer" : 0,
            "byteLength" : 48,
            "byteOffset" : 34768
        },
        {
            "buffer" : 0,
            "byteLength" : 48,
            "byteOffset" : 34816
        },
        {
            "buffer" : 0,
            "byteLength" : 32,
            "byteOffset" : 34864
        },
        {
            "buffer" : 0,
            "byteLength" : 12,
            "byteOffset" : 34896
        },
        {
            "buffer" : 0,
            "byteLength" : 3900,
            "byteOffset" : 34908
        },
        {
            "buffer" : 0,
            "byteLength" : 48,
            "byteOffset" : 38808
        },
        {
            "buffer" : 0,
            "byteLength" : 48,
            "byteOffset" : 38856
        },
        {
            "buffer" : 0,
            "byteLength" : 32,
            "byteOffset" : 38904
        },
        {
            "buffer" : 0,
            "byteLength" : 2983,
            "byteOffset" : 38936
        },
        {
            "buffer" : 0,
            "byteLength" : 48,
            "byteOffset" : 41920
        },
        {
            "buffer" : 0,
            "byteLength" : 48,
            "byteOffset" : 41968
        },
        {
            "buffer" : 0,
            "byteLength" : 32,
            "byteOffset" : 42016
        },
        {
            "buffer" : 0,
            "byteLength" : 2774,
            "byteOffset" : 42048
        }
    ],
    "buffers" : [
        {
            "byteLength" : 44824,
            "uri" : "data:application/octet-stream;base64,"
        }
    ]
}
